<?xml version="1.0" encoding="utf-8"?><svg viewBox="0 0 30 23" xmlns="http://www.w3.org/2000/svg" xmlns:xlink="http://www.w3.org/1999/xlink"><style>:root>svg{display:none}:root>svg:target{display:block}</style><svg viewBox="0 0 14 14" id="armchair" xmlns="http://www.w3.org/2000/svg"><path d="M13.942 5.35a1.95 1.95 0 0 0-1.47-1.417c-.058-.013-.116-.01-.174-.018A5.025 5.025 0 0 0 7.389 0h-.777a5.026 5.026 0 0 0-4.909 3.916 1.935 1.935 0 0 0-1.018.436C.25 4.722 0 5.262 0 5.833c0 .608.293 1.183.778 1.548v3.508c0 .573.315 1.07.778 1.34v.604a1.168 1.168 0 0 0 2.333 0v-.389h6.223v.39a1.168 1.168 0 0 0 2.333 0v-.606a1.55 1.55 0 0 0 .778-1.34V7.382a1.945 1.945 0 0 0 .72-2.03ZM6.612.779h.777a4.25 4.25 0 0 1 4.123 3.198 1.928 1.928 0 0 0-.682.347 1.94 1.94 0 0 0-.719 1.51v1.945H3.89V5.916c0-.908-.59-1.7-1.4-1.942A4.25 4.25 0 0 1 6.61.778Zm4.277 8.166a.39.39 0 0 1-.389.39h-7a.39.39 0 0 1 0-.778h7a.39.39 0 0 1 .389.388Zm-7.778 3.89a.39.39 0 0 1-.778 0v-.39h.778v.39Zm8.556 0a.39.39 0 0 1-.778 0v-.39h.778v.39Zm.97-5.997a.389.389 0 0 0-.193.336v3.716a.779.779 0 0 1-.777.778H2.333a.779.779 0 0 1-.777-.778V7.173a.39.39 0 0 0-.194-.336 1.154 1.154 0 0 1-.584-1.004 1.166 1.166 0 0 1 1.365-1.15c.552.09.968.62.968 1.233V7.85a1.165 1.165 0 0 0-.778 1.095c0 .644.524 1.167 1.167 1.167h7a1.165 1.165 0 0 0 .389-2.262V5.833c0-.353.157-.683.432-.906.278-.226.63-.309.991-.233.421.088.772.426.873.841a1.157 1.157 0 0 1-.547 1.302Z"/></svg><svg viewBox="0 0 8 12" id="arrow" xmlns="http://www.w3.org/2000/svg"><path d="M6 2 2 6l4 4"/></svg><svg viewBox="0 0 28 23" id="bedroom" xmlns="http://www.w3.org/2000/svg"><path d="M28 12.648a2.43 2.43 0 0 0-1.323-2.178c-.832-.426-1.909-.642-3.201-.642H9.425a2.81 2.81 0 0 0-.662-1.337L6.771 6.276c-.493-.548-1.202-.88-1.995-.937l-.358-.025a1.408 1.408 0 0 0-.548.072v-1.17c0-.41-.173-.781-.45-1.044.28-.335.45-.767.45-1.237A1.937 1.937 0 0 0 1.935 0 1.937 1.937 0 0 0 0 1.935c0 .47.169.902.449 1.237A1.435 1.435 0 0 0 0 4.215v17.456c0 .302.245.547.547.547h1.887a.547.547 0 0 0 .545-.495c.065-.689.43-2.58 1.331-3.428h1.465a.547.547 0 0 0 0-1.094H1.094v-4.815h7.3v1.425c0 .843.685 1.53 1.528 1.53h16.549c.147 0 .294-.022.435-.064v1.924H10.587a.547.547 0 1 0 0 1.094H23.69c.898.845 1.265 2.738 1.331 3.428.027.28.262.495.545.495h1.887a.547.547 0 0 0 .547-.547v-9.023ZM3.871 7.174c.008-.233-.024-.473.168-.645.193-.172.425-.116.66-.099.516.037.952.236 1.259.578L7.95 9.223c.323.359.478.859.436 1.409-.016.211-.012.399-.19.548-.163.136-.34.11-.536.105-.55-.017-1.032-.223-1.355-.582L4.313 8.488c-.323-.359-.459-.838-.442-1.314Zm-2.777 4.119V4.215c0-.19.155-.345.345-.345h.991c.19 0 .346.155.346.345v7.077H1.094ZM3.87 9.63l1.495 1.662H3.87V9.63ZM1.935 1.094a.842.842 0 0 1 0 1.682.842.842 0 0 1 0-1.682Zm.023 20.03h-.864v-2.83h1.834c-.592.97-.86 2.168-.97 2.83Zm7.964-6.877a.436.436 0 0 1-.435-.436v-2.889h13.989c1.117 0 2.027.176 2.703.521.449.23.727.691.727 1.205v1.163c0 .24-.195.436-.435.436H9.922Zm16.12 6.877c-.11-.662-.378-1.86-.97-2.83h1.834v2.83h-.864Z"/><path d="M8.686 17.539a.552.552 0 0 0-.714-.296.551.551 0 0 0-.296.714c.114.275.439.41.714.296a.552.552 0 0 0 .296-.714Z"/></svg><svg viewBox="0 0 23 22" id="childrensroom" xmlns="http://www.w3.org/2000/svg"><path d="M22.772 18.326a.644.644 0 0 0-.908-.012l-.002.002-.002-.002.004-.003a2.82 2.82 0 0 1-.24.19V8.461a.644.644 0 1 0-1.288 0V9.1c-2.301-.053-3.486-.384-4.635-.705-1.06-.297-2.061-.577-3.744-.577-1.683 0-2.685.28-3.745.577-1.148.321-2.333.652-4.634.705V5.883c0-2.312 1.054-3.887 2.968-4.434a4.122 4.122 0 0 1 4.62 1.764c-.234.116-.433.24-.595.373l-.736-.736a.645.645 0 1 0-.912.911l.833.833-.833.834a.645.645 0 1 0 .912.911l.736-.736c.222.181.512.347.87.497.609.256 1.334.428 1.805.428a1.936 1.936 0 0 0 1.934-1.934 1.936 1.936 0 0 0-1.934-1.933 3.86 3.86 0 0 0-.84.115A5.41 5.41 0 0 0 6.192.21C3.712.918 2.29 2.986 2.29 5.883v12.618a2.68 2.68 0 0 1-.24-.19l.004.003-.001.002-.002-.002a.645.645 0 0 0-.9.923c.056.056.787.752 2.49 1.428C5.346 21.343 8.019 22 11.958 22c3.938 0 6.612-.657 8.316-1.335 1.704-.676 2.435-1.372 2.491-1.428a.644.644 0 0 0 .008-.911ZM12.108 4.21c.46-.17.921-.26 1.138-.26a.645.645 0 0 1 0 1.289c-.217 0-.677-.09-1.138-.26-.4-.15-.624-.294-.733-.385.109-.09.334-.235.733-.384Zm-8.53 6.178c2.486-.055 3.807-.424 4.982-.753 1.014-.284 1.89-.529 3.397-.529 1.506 0 2.382.245 3.397.53 1.175.328 2.495.697 4.982.752v6.452H3.578v-6.452Zm0 7.741h16.758v1.104c-2.451 1.127-5.66 1.474-8.38 1.474-2.719 0-5.927-.347-8.378-1.474V18.13Z"/><path d="M6.8 15.551a.645.645 0 0 0 .645-.644v-2.578a.644.644 0 1 0-1.29 0v2.578c0 .356.29.644.645.644Zm2.578 0a.645.645 0 0 0 .645-.644v-2.578a.644.644 0 1 0-1.29 0v2.578c0 .356.29.644.645.644Zm2.578 0a.645.645 0 0 0 .645-.644v-2.578a.644.644 0 1 0-1.29 0v2.578c0 .356.29.644.645.644Zm2.578 0a.645.645 0 0 0 .645-.644v-2.578a.644.644 0 1 0-1.29 0v2.578c0 .356.29.644.646.644Zm2.579 0a.644.644 0 0 0 .644-.644v-2.578a.644.644 0 1 0-1.289 0v2.578c0 .356.289.644.645.644Z"/></svg><svg viewBox="0 0 22 22" id="closet" xmlns="http://www.w3.org/2000/svg"><path d="M21.27 0H.645a.645.645 0 0 0 0 1.29h.042v20.066a.645.645 0 0 0 1.29 0v-.387h17.96v.386a.645.645 0 0 0 1.29 0V1.29h.043a.645.645 0 1 0 0-1.289Zm-9.668 13.363h8.335v2.492h-8.335v-2.492Zm8.335-1.289h-8.335V9.582h8.335v2.492Zm-9.625 7.606H6.79V1.29h3.524v18.39ZM1.977 1.29H5.5v18.39H1.977V1.29Zm9.625 18.39v-2.535h8.335v2.535h-8.335Zm8.335-11.387h-8.335V1.289h8.335v7.004Z"/><path d="M8.55 11.645a.644.644 0 1 0 0-1.29.644.644 0 0 0 0 1.29Zm-4.812 0a.645.645 0 1 0 0-1.29.645.645 0 0 0 0 1.29Z"/></svg><svg viewBox="0 0 12 14" id="cupboard" xmlns="http://www.w3.org/2000/svg"><path d="M10.527 13.098H1.23c-.678 0-1.23-.552-1.23-1.23V1.23C0 .552.552 0 1.23 0h9.297c.679 0 1.23.552 1.23 1.23v10.637a1.23 1.23 0 0 1-1.23 1.23ZM1.23.82a.41.41 0 0 0-.41.41v10.637c0 .226.184.41.41.41h9.297a.41.41 0 0 0 .41-.41V1.23a.41.41 0 0 0-.41-.41H1.23Z"/><path d="M2.379 14a.41.41 0 0 1-.41-.41v-.902a.41.41 0 0 1 .82 0v.902a.41.41 0 0 1-.41.41Zm7 0a.41.41 0 0 1-.41-.41v-.902a.41.41 0 0 1 .82 0v.902a.41.41 0 0 1-.41.41Zm-3.5-.902a.41.41 0 0 1-.41-.41V.41a.41.41 0 0 1 .82 0v12.277a.41.41 0 0 1-.41.41Z"/><path d="M11.348 9.598h-5.47a.41.41 0 0 1 0-.82h5.47a.41.41 0 0 1 0 .82Zm-2.407 1.777h-.656a.41.41 0 1 1 0-.82h.656a.41.41 0 1 1 0 .82ZM4.129 6.973a.41.41 0 0 1-.41-.41v-.657a.41.41 0 0 1 .82 0v.657a.41.41 0 0 1-.41.41Zm3.5 0a.41.41 0 0 1-.41-.41v-.657a.41.41 0 0 1 .82 0v.657a.41.41 0 0 1-.41.41Z"/></svg><svg viewBox="0 0 23 23" id="kitchen" xmlns="http://www.w3.org/2000/svg"><path d="M11.5 0v12.938H0V23h23V0H11.5Zm0 21.563H1.437v-7.188H11.5v7.188Zm10.063 0h-8.625V7.188h8.624v14.375Zm0-15.813h-8.625V1.437h8.624V5.75Z"/><path d="M10.063 4.734 8.624 3.296V0H7.187v3.891L8.626 5.33v.421h-5.75V5.33l1.437-1.44V0H2.875v3.296L1.437 4.734v2.454h8.626V4.733ZM8.625 15.813H4.312v1.437h4.313v-1.438Zm7.188-12.938h-1.438v1.438h1.438V2.875Zm0 7.188h-1.438v4.312h1.438v-4.313ZM2.875 8.625H1.437v1.438h1.438V8.624Zm3.594 0H5.03v1.438h1.44V8.624Zm3.594 0H8.624v1.438h1.438V8.624Z"/></svg><svg viewBox="0 0 30 23" id="livingroom" xmlns="http://www.w3.org/2000/svg"><path d="M29.531 15.938h-1.406v-2.813h.938a.469.469 0 0 0 .462-.546l-.47-2.812a.469.469 0 0 0-.461-.392h-1.875a.469.469 0 0 0-.462.392l-.47 2.812a.469.469 0 0 0 .463.546h.938v2.813h-1.875a.393.393 0 0 0-.047.009 2.347 2.347 0 0 0-2.297-1.884h-.938v-1.407c0-.776-.63-1.406-1.406-1.406h-3.75c-.777 0-1.406.63-1.406 1.406v1.406h-.938v-1.406c0-.776-.63-1.406-1.406-1.406h-3.75c-.777 0-1.406.63-1.406 1.406v1.406H7.03a2.347 2.347 0 0 0-2.297 1.885.392.392 0 0 0-.046-.01H2.813v-2.812h.937a.469.469 0 0 0 .462-.546l-.469-2.812a.469.469 0 0 0-.462-.392H1.406a.469.469 0 0 0-.462.392l-.469 2.812a.469.469 0 0 0 .463.546h.937v2.813H.469a.469.469 0 0 0-.469.468v5.157c0 .258.21.468.469.468H29.53c.26 0 .469-.21.469-.468v-5.157a.469.469 0 0 0-.469-.468Zm-28.04-3.75.312-1.876h1.081l.312 1.876H1.491Zm2.728 8.906H.937v-4.219H4.22v4.219Zm12.187-8.438c0-.259.21-.469.469-.469h3.75a.47.47 0 0 1 .469.47v1.405h-4.688v-1.406Zm-7.5 0c0-.259.21-.469.469-.469h3.75a.47.47 0 0 1 .469.47v1.405H8.906v-1.406Zm15.469 8.438H5.625v-1.407h18.75v1.407Zm0-2.344H5.625v-2.344c0-.776.63-1.406 1.406-1.406H22.97c.776 0 1.406.63 1.406 1.406v2.344Zm2.429-6.563.312-1.874h1.08l.313 1.874h-1.705Zm2.259 8.907H25.78v-4.219h3.282v4.219ZM9.375 8.438h10.313c.258 0 .468-.21.468-.47v-7.5A.469.469 0 0 0 19.688 0H9.374a.469.469 0 0 0-.469.469v7.5c0 .259.21.468.469.468Zm.469-7.5h9.375v4.756l-1.04-1.3a.47.47 0 0 0-.698-.039L15.937 5.9l-2.95-2.95a.469.469 0 0 0-.635-.025l-2.508 2.15V.937Zm0 5.37 2.787-2.39 2.975 2.974c.183.183.48.183.663 0l1.505-1.504 1.445 1.808V7.5H9.844V6.309Z"/><path d="M16.406 4.219a1.406 1.406 0 1 0 0-2.813 1.406 1.406 0 0 0 0 2.813Zm0-1.875a.469.469 0 1 1 0 .937.469.469 0 0 1 0-.937Z"/></svg><svg viewBox="0 0 20 14" id="mattress" xmlns="http://www.w3.org/2000/svg"><path d="M17.5 0H1.59A1.593 1.593 0 0 0 0 1.59v10.82A1.593 1.593 0 0 0 1.59 14H17.5a1.592 1.592 0 0 0 1.59-1.59V1.59A1.593 1.593 0 0 0 17.5 0Zm0 13.364H1.59a.955.955 0 0 1-.954-.955v-.319c.275.207.61.32.955.32h1.273v-.637H1.59a.955.955 0 0 1-.955-.955V10.5c.275.207.61.32.955.32H17.5c.344 0 .68-.113.954-.32v.32a.955.955 0 0 1-.954.954h-5.09v.636h5.09c.344 0 .68-.112.954-.319v.32a.955.955 0 0 1-.954.954Zm.954-4.137a.955.955 0 0 1-.954.955H1.59a.956.956 0 0 1-.954-.955V1.591a.956.956 0 0 1 .955-.955H17.5a.955.955 0 0 1 .954.955v7.636Z"/><path d="M3.5 11.773h.636v.636H3.5v-.636Zm7.636 0h.637v.636h-.637v-.636ZM3.5 2.227v-.636h-.636v.636a.319.319 0 0 1-.319.318H1.91v.637h.636a.319.319 0 0 1 .319.318v1.273a.319.319 0 0 1-.319.318H1.91v.636h.636a.319.319 0 0 1 .319.318v1.273a.319.319 0 0 1-.319.318H1.91v.637h.636a.319.319 0 0 1 .319.318v.636H3.5v-.636a.319.319 0 0 1 .318-.318h.637v-.637h-.637a.319.319 0 0 1-.318-.318V6.045a.319.319 0 0 1 .318-.318h.637v-.636h-.637a.319.319 0 0 1-.318-.318V3.5a.319.319 0 0 1 .318-.318h.637v-.637h-.637a.319.319 0 0 1-.318-.318Zm3.182 0v-.636h-.637v.636a.318.318 0 0 1-.318.318h-.636v.637h.636a.319.319 0 0 1 .318.318v1.273a.319.319 0 0 1-.318.318h-.636v.636h.636a.319.319 0 0 1 .318.318v1.273a.318.318 0 0 1-.318.318h-.636v.637h.636a.319.319 0 0 1 .318.318v.636h.637v-.636A.319.319 0 0 1 7 8.273h.636v-.637H7a.319.319 0 0 1-.318-.318V6.045A.319.319 0 0 1 7 5.727h.636v-.636H7a.319.319 0 0 1-.318-.318V3.5A.319.319 0 0 1 7 3.182h.636v-.637H7a.319.319 0 0 1-.318-.318Zm3.182 0v-.636h-.637v.636a.319.319 0 0 1-.318.318h-.636v.637h.636a.319.319 0 0 1 .318.318v1.273a.319.319 0 0 1-.318.318h-.636v.636h.636a.319.319 0 0 1 .318.318v1.273a.319.319 0 0 1-.318.318h-.636v.637h.636a.319.319 0 0 1 .318.318v.636h.637v-.636a.319.319 0 0 1 .318-.318h.636v-.637h-.636a.319.319 0 0 1-.318-.318V6.045a.319.319 0 0 1 .318-.318h.636v-.636h-.636a.319.319 0 0 1-.318-.318V3.5a.319.319 0 0 1 .318-.318h.636v-.637h-.636a.319.319 0 0 1-.318-.318Zm3.182 0v-.636h-.637v.636a.319.319 0 0 1-.318.318h-.636v.637h.636a.319.319 0 0 1 .318.318v1.273a.319.319 0 0 1-.318.318h-.636v.636h.636a.319.319 0 0 1 .318.318v1.273a.319.319 0 0 1-.318.318h-.636v.637h.636a.319.319 0 0 1 .318.318v.636h.636v-.636a.318.318 0 0 1 .319-.318H14v-.637h-.636a.318.318 0 0 1-.319-.318V6.045a.318.318 0 0 1 .319-.318H14v-.636h-.636a.318.318 0 0 1-.319-.318V3.5a.318.318 0 0 1 .319-.318H14v-.637h-.636a.318.318 0 0 1-.319-.318Zm3.181 0v-.636h-.636v.636a.318.318 0 0 1-.318.318h-.637v.637h.637a.318.318 0 0 1 .318.318v1.273a.318.318 0 0 1-.318.318h-.637v.636h.637a.318.318 0 0 1 .318.318v1.273a.318.318 0 0 1-.318.318h-.637v.637h.637a.318.318 0 0 1 .318.318v.636h.636v-.636a.318.318 0 0 1 .319-.318h.636v-.637h-.636a.318.318 0 0 1-.319-.318V6.045a.318.318 0 0 1 .319-.318h.636v-.636h-.636a.318.318 0 0 1-.319-.318V3.5a.318.318 0 0 1 .319-.318h.636v-.637h-.636a.318.318 0 0 1-.319-.318Z"/></svg><svg viewBox="0 0 15 14" id="new" xmlns="http://www.w3.org/2000/svg"><path fill-rule="evenodd" clip-rule="evenodd" d="m13.195 5.958.01.007C13.578 6.24 14 6.552 14 7c0 .449-.423.76-.795 1.035-.216.157-.485.356-.52.487.012.253.083.5.207.72l.005.012c.188.433.38.876.163 1.25-.22.379-.714.434-1.19.488-.248.001-.49.059-.712.168-.11.222-.167.465-.17.712-.053.477-.115.975-.49 1.19-.375.217-.826.022-1.262-.168a1.643 1.643 0 0 0-.715-.21c-.127.033-.32.295-.478.509l-.009.012C7.76 13.579 7.449 14 7 14c-.449 0-.76-.422-1.034-.794v-.001c-.158-.216-.356-.485-.487-.52a1.672 1.672 0 0 0-.72.207l-.01.005c-.434.188-.878.382-1.253.163-.378-.22-.434-.713-.487-1.19a1.62 1.62 0 0 0-.17-.714 1.622 1.622 0 0 0-.71-.17c-.478-.05-.973-.111-1.191-.487-.218-.375-.022-.827.168-1.263a1.63 1.63 0 0 0 .21-.714c-.033-.127-.296-.322-.51-.48l-.01-.007C.422 7.761 0 7.45 0 7c0-.449.422-.76.795-1.035.215-.157.485-.355.52-.487a1.629 1.629 0 0 0-.21-.716C.913 4.326.72 3.874.94 3.496s.713-.434 1.19-.487a1.62 1.62 0 0 0 .71-.167c.11-.221.167-.465.169-.712.053-.48.116-.976.49-1.193.375-.216.826-.024 1.265.169.22.123.463.194.714.21.128-.033.32-.295.478-.509l.01-.012C6.24.421 6.55 0 7 0c.447 0 .757.418 1.033.79l.004.005c.158.215.355.485.487.52a1.63 1.63 0 0 0 .714-.21c.436-.192.889-.385 1.267-.165.378.22.433.714.487 1.19 0 .248.059.493.169.715.221.11.464.168.711.17.477.05.973.11 1.19.486.218.376.022.828-.167 1.263a1.629 1.629 0 0 0-.21.714c.032.128.296.322.51.48ZM4.93 8.4a.304.304 0 0 0 .547-.182V5.783a.304.304 0 0 0-.608 0v1.522L3.59 5.6a.304.304 0 0 0-.548.183v2.435a.304.304 0 0 0 .61 0V6.696L4.93 8.4Zm2.678.122H6.392a.304.304 0 0 1-.305-.304V5.783c0-.168.136-.305.305-.305h1.217a.304.304 0 0 1 0 .61h-.913v.608h.913a.304.304 0 0 1 0 .609h-.913v.608h.913a.304.304 0 0 1 0 .61Zm2.754-.208a.304.304 0 0 0 .29.208h.012a.304.304 0 0 0 .283-.23l.61-2.435a.305.305 0 0 0-.592-.148L10.61 7.13l-.278-.835a.318.318 0 0 0-.578 0l-.278.835-.355-1.42a.305.305 0 0 0-.59.147L9.14 8.29a.304.304 0 0 0 .284.23.291.291 0 0 0 .3-.207l.32-.96.32.96Z"/></svg><svg viewBox="0 0 23 22" id="office" xmlns="http://www.w3.org/2000/svg"><path d="M22.313 10.398h-.992c.22-.38.347-.82.347-1.289V7.176a.645.645 0 0 0-.645-.645h-1.22c.371-1.73 2.132-2.677 2.162-2.693a.645.645 0 0 0-.593-1.145 6.374 6.374 0 0 0-1.638 1.302V1.977a.645.645 0 0 0-1.289 0v2.018a6.372 6.372 0 0 0-1.637-1.302.645.645 0 1 0-.592 1.145c.02.01 1.791.946 2.162 2.693h-1.222a.645.645 0 0 0-.644.645v1.933c0 .47.126.91.347 1.29h-5.793l-.644-1.29h2.867a.645.645 0 0 0 .645-.644V.645A.645.645 0 0 0 13.289 0H2.891a.645.645 0 0 0-.645.645v7.82c0 .356.289.644.645.644h2.867l-.645 1.29H1.602a.645.645 0 0 0 0 1.289h.644v9.667a.645.645 0 0 0 1.29 0v-1.933h9.109v1.933c0 .356.288.645.644.645h7.734a.645.645 0 0 0 .645-.645v-9.668h.645a.644.644 0 1 0 0-1.289ZM17.8 9.11V7.82h2.578v1.29a1.29 1.29 0 0 1-1.29 1.288A1.29 1.29 0 0 1 17.8 9.109ZM3.535 1.29h9.11v6.53h-9.11V1.29ZM7.2 9.11h1.782l.644 1.29h-3.07L7.2 9.11Zm-3.664 9.024v-6.445h9.11v6.445h-9.11Zm10.399-1.29h6.445v3.868h-6.445v-3.867Zm6.445-1.288h-6.445v-3.867h6.445v3.867Z"/><path d="M17.156 14.266a.645.645 0 1 0 0-1.29.645.645 0 0 0 0 1.29Zm0 5.156a.645.645 0 1 0 0-1.29.645.645 0 0 0 0 1.29Z"/></svg><svg viewBox="0 0 16 16" id="stock" xmlns="http://www.w3.org/2000/svg"><path d="M5.5 6h1m3 4h1m0-4.5-5 5m1.801-9.21L6.172 2.417a.988.988 0 0 1-.698.29H3.696a.988.988 0 0 0-.988.988v1.778a.988.988 0 0 1-.29.698L1.29 7.302a.988.988 0 0 0 0 1.397l1.13 1.129a.987.987 0 0 1 .289.698v1.778c0 .546.442.988.988.988h1.778c.262 0 .513.104.698.29l1.13 1.129a.988.988 0 0 0 1.397 0l1.129-1.13a.988.988 0 0 1 .698-.289h1.778a.988.988 0 0 0 .988-.988v-1.778c0-.262.104-.513.29-.698l1.129-1.13a.988.988 0 0 0 0-1.397l-1.13-1.129a.988.988 0 0 1-.289-.698V3.696a.988.988 0 0 0-.988-.988h-1.778a.988.988 0 0 1-.698-.29L8.698 1.29a.988.988 0 0 0-1.397 0Z"/></svg></svg>